<?xml version="1.0" encoding="UTF-8"?>
<svg id="Layer_2" data-name="Layer 2" xmlns="http://www.w3.org/2000/svg" xmlns:xlink="http://www.w3.org/1999/xlink" viewBox="0 0 885.82 98">
  <defs>
    <style>
      .cls-1 {
        fill: url(#linear-gradient);
      }
    </style>
    <linearGradient id="linear-gradient" x1="0" y1="50.31" x2="68.86" y2="50.31" gradientUnits="userSpaceOnUse">
      <stop offset=".02" stop-color="#fba91b"/>
      <stop offset=".15" stop-color="#f89c26"/>
      <stop offset=".39" stop-color="#f27c45"/>
      <stop offset=".71" stop-color="#e84877"/>
      <stop offset=".85" stop-color="#e4318f"/>
    </linearGradient>
  </defs>
  <g id="Layer_1-2" data-name="Layer 1">
    <path d="m207.61,43.34v32.49h-13.69v-28.07c0-7.37-3.74-11.43-9.95-11.43s-10.8,3.84-10.8,11.53v27.96h-13.75v-28.07c0-7.37-3.69-11.43-9.95-11.43-5.9,0-10.8,3.84-10.8,11.53v27.96h-13.75V24.8h13.38v6c3.63-5.42,9.22-7.37,15.01-7.37,7.37,0,13.43,3.32,16.85,8.74,3.95-6.48,10.64-8.74,17.33-8.74,12.01,0,20.12,8.06,20.12,19.91Zm58.98,32.49h-13.43v-5.64c-3.32,4.11-8.27,6.95-15.27,6.95-14.06,0-24.7-11.53-24.7-26.86s10.64-26.86,24.7-26.86c7,0,11.9,2.84,15.27,7v-5.64h13.43v51.03Zm-39.34-25.54c0,7.79,5.11,14.06,13.17,14.06s13.17-6,13.17-14.06-5.32-14.06-13.17-14.06-13.17,6.27-13.17,14.06Zm60.24-7.32h4.85l14.38-18.17h16.85l-20.12,24.02,20.28,27.02h-16.91l-14.69-20.64h-4.63v20.64h-13.75V0h13.75v42.97Zm84.58,7.27c0,1.58-.11,3.48-.26,4.63h-36.18c1.47,7.37,6.63,10.59,13.11,10.59,4.42,0,9.22-1.79,12.9-4.9l8.06,8.85c-5.79,5.32-13.17,7.74-21.75,7.74-15.64,0-26.49-10.64-26.49-26.7s10.53-27.02,25.81-27.02,24.75,10.9,24.81,26.81Zm-36.39-4.74h22.59c-1.26-6.53-5.21-10.22-11.11-10.22-6.48,0-10.27,3.9-11.48,10.22Zm85-36.39c0,4.95-3.84,8.74-8.79,8.74s-8.74-3.79-8.74-8.74,3.79-8.85,8.74-8.85,8.79,3.9,8.79,8.85Zm-1.84,66.72h-13.75V24.8h13.75v51.03Zm48.19-38.81h-18.49v18.64c0,6.37,3.37,8.69,7.64,8.69,3.27,0,6.79-1.63,9.59-3.32l5.06,10.74c-4.48,3.05-9.64,5.37-16.9,5.37-12.64,0-19.12-7.16-19.12-20.38v-19.75h-9.85v-12.22h9.85v-15.17h13.75v15.17h18.49v12.22Zm84.11,38.91h-13.43v-5.64c-3.32,4.11-8.27,6.95-15.27,6.95-14.06,0-24.7-11.53-24.7-26.86s10.64-26.86,24.7-26.86c7,0,11.9,2.84,15.27,7v-5.64h13.43v51.03Zm-39.34-25.54c0,7.79,5.11,14.06,13.17,14.06s13.17-6,13.17-14.06-5.32-14.06-13.17-14.06-13.17,6.27-13.17,14.06Zm129.13-6.95v32.49h-13.69v-28.07c0-7.37-3.74-11.43-9.95-11.43s-10.8,3.84-10.8,11.53v27.96h-13.75v-28.07c0-7.37-3.69-11.43-9.95-11.43-5.9,0-10.8,3.84-10.8,11.53v27.96h-13.75V24.91h13.38v6c3.63-5.42,9.22-7.37,15.01-7.37,7.37,0,13.43,3.32,16.85,8.74,3.95-6.48,10.64-8.74,17.33-8.74,12.01,0,20.12,8.06,20.12,19.91Zm58.93,32.49h-13.43v-5.64c-3.32,4.11-8.27,6.95-15.27,6.95-14.06,0-24.7-11.53-24.7-26.86s10.64-26.86,24.7-26.86c7,0,11.9,2.84,15.27,7v-5.64h13.43v51.03Zm-39.34-25.54c0,7.79,5.11,14.06,13.17,14.06s13.17-6,13.17-14.06-5.32-14.06-13.17-14.06-13.17,6.27-13.17,14.06Zm90.38-15.43l-25.17,28.7h25.75v12.27h-44.66v-9.9l25.75-28.91h-24.86v-12.22h43.19v10.06Zm23.12-25.75c0,4.95-3.84,8.74-8.79,8.74s-8.74-3.79-8.74-8.74,3.79-8.85,8.74-8.85,8.79,3.9,8.79,8.85Zm-1.84,66.72h-13.75V24.91h13.75v51.03Zm55.34-32.49v32.49h-13.75v-28.07c0-7.37-3.69-11.43-9.95-11.43-5.9,0-10.8,3.84-10.8,11.53v27.96h-13.75V24.91h13.38v6c3.63-5.42,9.22-7.37,15.01-7.37,11.59,0,19.85,8.06,19.85,19.91Zm44.82-12.85v-5.69h13.48v46.82c0,16.38-10.69,26.28-27.54,26.28-8.06,0-16.59-2.11-22.33-6.16l4.9-11.22c5.11,3.37,10.74,5.21,16.85,5.21,8.53,0,14.54-4.74,14.54-13.53v-3.58c-3.48,4.27-8.64,6.9-15.69,6.9-12.43,0-23.49-10.37-23.49-26.02s11.06-26.07,23.49-26.07c7.11,0,12.32,2.74,15.8,7.06Zm-25.17,19.01c0,7.37,5,13.38,12.85,13.38s12.8-5.79,12.8-13.38-5.16-13.43-12.8-13.43-12.85,6-12.85,13.43Z"/>
    <path class="cls-1" d="m35.89,24.76H5.85l2.93,10.14h27.11c2.73,0,5.07,2.34,5.07,5.07v5.07H15.41c-8.39,0-15.41,6.83-15.41,15.41s6.83,15.41,15.41,15.41h20.48c8.39,0,15.41-6.83,15.41-15.41v-20.09c0-8.58-7.02-15.61-15.41-15.61Zm5.07,35.89c0,2.73-2.34,5.07-5.07,5.07H15.41c-2.73,0-5.07-2.34-5.07-5.07s2.34-5.07,5.07-5.07h25.55v5.07Zm27.89-5.07h-12.29v-10.34h9.36l2.93,10.34Z"/>
    <rect x="94.75" y="24.74" width="2.08" height="51.1"/>
  </g>
</svg>